<svg width="191" height="149" viewBox="0 0 191 149" fill="none" xmlns="http://www.w3.org/2000/svg">
<rect width="20" height="123" fill="#6C5DD3"/>
<rect x="24" y="28" width="20" height="95" fill="#A0D7E7"/>
<rect x="74" y="39" width="20" height="84" fill="#6C5DD3"/>
<rect x="98" y="61" width="20" height="62" fill="#A0D7E7"/>
<path d="M93 28L95.5858 30.5858C96.3668 31.3668 97.6332 31.3668 98.4142 30.5858L101 28H93Z" fill="#1B1D21"/>
<rect x="69" width="56" height="28" rx="6" fill="#1B1D21"/>
<path d="M87.3256 19.1293C89.3476 19.1293 90.8203 17.9705 90.8157 16.3732C90.8203 15.1914 90.0816 14.342 88.7567 14.1527V14.0788C89.7816 13.8572 90.4694 13.0955 90.4648 12.0337C90.4694 10.5934 89.2414 9.41619 87.3533 9.41619C85.5159 9.41619 84.0941 10.5103 84.0571 12.0938H85.7052C85.7329 11.2997 86.4715 10.8058 87.3441 10.8058C88.2258 10.8058 88.8121 11.3413 88.8075 12.1353C88.8121 12.9616 88.1289 13.511 87.1502 13.511H86.3146V14.8313H87.1502C88.3458 14.8313 89.0568 15.4315 89.0522 16.2855C89.0568 17.1211 88.332 17.6935 87.321 17.6935C86.37 17.6935 85.636 17.1996 85.5944 16.4286H83.8586C83.9048 18.0259 85.3313 19.1293 87.3256 19.1293ZM95.7611 19.1293C97.8062 19.1293 99.2696 18.0028 99.2742 16.4656C99.2696 15.2837 98.3971 14.2958 97.2983 14.1112V14.0465C98.254 13.8342 98.9187 12.9755 98.9233 11.9506C98.9187 10.4964 97.5799 9.41619 95.7611 9.41619C93.9283 9.41619 92.5895 10.4918 92.5941 11.9506C92.5895 12.9755 93.2451 13.8342 94.2191 14.0465V14.1112C93.102 14.2958 92.2387 15.2837 92.2433 16.4656C92.2387 18.0028 93.6975 19.1293 95.7611 19.1293ZM95.7611 17.8089C94.69 17.8089 93.9976 17.218 94.0068 16.3455C93.9976 15.4407 94.7408 14.799 95.7611 14.799C96.7674 14.799 97.5061 15.4453 97.5153 16.3455C97.5061 17.218 96.8182 17.8089 95.7611 17.8089ZM95.7611 13.5018C94.8839 13.5018 94.2561 12.9339 94.2653 12.1122C94.2561 11.2997 94.8655 10.755 95.7611 10.755C96.6428 10.755 97.2476 11.2997 97.2568 12.1122C97.2476 12.9386 96.6243 13.5018 95.7611 13.5018ZM101.395 19.1016C101.94 19.1016 102.406 18.6491 102.411 18.0859C102.406 17.532 101.94 17.0795 101.395 17.0795C100.832 17.0795 100.375 17.532 100.38 18.0859C100.375 18.6491 100.832 19.1016 101.395 19.1016ZM104.464 19H106.242L110.258 11.0089V9.54545H103.818V10.9766H108.485V11.0412L104.464 19Z" fill="white"/>
<rect x="147" y="64" width="20" height="59" fill="#6C5DD3"/>
<rect x="171" y="79" width="20" height="44" fill="#A0D7E7"/>
<path d="M9.38068 140.273C9.38068 137.217 7.51562 135.416 5.03658 135.416C2.55291 135.416 0.692472 137.217 0.692472 140.273C0.692472 143.324 2.55291 145.129 5.03658 145.129C7.51562 145.129 9.38068 143.329 9.38068 140.273ZM7.65874 140.273C7.65874 142.424 6.57848 143.592 5.03658 143.592C3.49929 143.592 2.41442 142.424 2.41442 140.273C2.41442 138.121 3.49929 136.953 5.03658 136.953C6.57848 136.953 7.65874 138.121 7.65874 140.273ZM14.0191 145.138C15.801 145.138 16.9367 144.081 17.0567 142.576H15.4594C15.3163 143.338 14.767 143.777 14.0329 143.777C12.9896 143.777 12.3156 142.904 12.3156 141.455C12.3156 140.023 13.0035 139.165 14.0329 139.165C14.8362 139.165 15.3302 139.682 15.4594 140.365H17.0567C16.9413 138.828 15.741 137.817 14.0099 137.817C11.9324 137.817 10.6214 139.317 10.6214 141.482C10.6214 143.629 11.9001 145.138 14.0191 145.138ZM21.9698 137.909H20.571V136.21H18.8999V137.909H17.8935V139.202H18.8999V143.144C18.8906 144.478 19.8601 145.134 21.1158 145.097C21.5913 145.083 21.919 144.991 22.0991 144.931L21.8175 143.624C21.7251 143.647 21.5359 143.689 21.3281 143.689C20.908 143.689 20.571 143.541 20.571 142.867V139.202H21.9698V137.909Z" fill="#808191"/>
<path d="M85.1435 135.545V145H86.7869V138.491H86.8746L89.4876 144.972H90.7156L93.3285 138.505H93.4162V145H95.0597V135.545H92.9638L90.157 142.396H90.0462L87.2393 135.545H85.1435ZM99.0691 145.143C100.182 145.143 100.846 144.621 101.151 144.026H101.206V145H102.813V140.254C102.813 138.38 101.285 137.817 99.9324 137.817C98.4412 137.817 97.2963 138.482 96.927 139.774L98.4874 139.996C98.6536 139.511 99.1245 139.096 99.9416 139.096C100.717 139.096 101.142 139.493 101.142 140.19V140.217C101.142 140.697 100.639 140.721 99.3876 140.854C98.0119 141.002 96.6962 141.413 96.6962 143.01C96.6962 144.404 97.7164 145.143 99.0691 145.143ZM99.503 143.915C98.8059 143.915 98.3074 143.597 98.3074 142.983C98.3074 142.341 98.8659 142.073 99.6138 141.967C100.052 141.907 100.93 141.796 101.146 141.621V142.456C101.146 143.246 100.509 143.915 99.503 143.915ZM104.493 145H106.165V140.831C106.165 139.931 106.843 139.294 107.762 139.294C108.044 139.294 108.394 139.345 108.537 139.391V137.854C108.385 137.826 108.122 137.808 107.937 137.808C107.125 137.808 106.446 138.269 106.188 139.091H106.114V137.909H104.493V145Z" fill="#808191"/>
<path d="M167.705 145L168.485 142.669H172.04L172.825 145H174.653L171.32 135.545H169.206L165.877 145H167.705ZM168.947 141.293L170.226 137.484H170.3L171.578 141.293H168.947ZM180.344 142.018C180.344 143.098 179.573 143.634 178.834 143.634C178.031 143.634 177.496 143.066 177.496 142.165V137.909H175.824V142.424C175.824 144.127 176.794 145.092 178.188 145.092C179.25 145.092 179.998 144.534 180.321 143.74H180.395V145H182.015V137.909H180.344V142.018ZM186.817 147.779C188.733 147.779 190.146 146.902 190.146 145.115V137.909H188.498V139.082H188.406C188.152 138.569 187.621 137.817 186.37 137.817C184.731 137.817 183.443 139.1 183.443 141.431C183.443 143.744 184.731 144.898 186.365 144.898C187.579 144.898 188.147 144.248 188.406 143.726H188.489V145.069C188.489 146.085 187.796 146.514 186.845 146.514C185.839 146.514 185.396 146.039 185.192 145.651L183.688 146.016C183.992 146.98 185.012 147.779 186.817 147.779ZM186.831 143.587C185.728 143.587 185.146 142.729 185.146 141.422C185.146 140.134 185.719 139.188 186.831 139.188C187.907 139.188 188.498 140.079 188.498 141.422C188.498 142.775 187.898 143.587 186.831 143.587Z" fill="#808191"/>
</svg>
