<svg width="16" height="16" viewBox="0 0 16 16" fill="none" xmlns="http://www.w3.org/2000/svg">
<rect width="16" height="16" rx="6" fill="#FFA2C0"/>
<path fill-rule="evenodd" clip-rule="evenodd" d="M9.7266 5.46996C9.7266 5.02663 10.0866 4.66663 10.5299 4.66663C10.9733 4.66663 11.3333 5.02663 11.3333 5.46996C11.3333 5.91329 10.9733 6.27329 10.5299 6.27329C10.0866 6.27329 9.7266 5.91329 9.7266 5.46996ZM8.44323 8.91972L9.40657 7.67672L9.39323 7.68339C9.44657 7.61005 9.45657 7.51672 9.4199 7.43339C9.38357 7.35005 9.30323 7.29339 9.2169 7.28672C9.12657 7.27672 9.0369 7.31672 8.98323 7.39005L8.1769 8.43339L7.25323 7.70672C7.19657 7.66339 7.1299 7.64639 7.06323 7.65339C6.9969 7.66339 6.9369 7.69972 6.89657 7.75305L5.91023 9.03672L5.8899 9.06672C5.83323 9.17305 5.8599 9.30972 5.9599 9.38339C6.00657 9.41339 6.05657 9.43339 6.11323 9.43339C6.19023 9.43672 6.26323 9.39639 6.3099 9.33339L7.14657 8.25639L8.09657 8.97005L8.12657 8.98972C8.23323 9.04639 8.36657 9.02005 8.44323 8.91972ZM9.1499 5.26006C9.13657 5.34339 9.1299 5.42672 9.1299 5.51006C9.1299 6.26006 9.73657 6.86639 10.4832 6.86639C10.5666 6.86639 10.6466 6.85672 10.7299 6.84339V9.53306C10.7299 10.6634 10.0632 11.3334 8.9299 11.3334H6.4669C5.33323 11.3334 4.66657 10.6634 4.66657 9.53306V7.06672C4.66657 5.93339 5.33323 5.26006 6.4669 5.26006H9.1499Z" fill="white"/>
</svg>
