<svg width="16" height="16" viewBox="0 0 16 16" fill="none" xmlns="http://www.w3.org/2000/svg">
<rect width="16" height="16" rx="6" fill="#FF9A7B"/>
<path fill-rule="evenodd" clip-rule="evenodd" d="M8.00023 4.66663C8.88323 4.66663 9.73323 5.01663 10.3566 5.64329C10.9832 6.27029 11.3336 7.11663 11.3336 8.00329C11.3336 9.16996 10.7199 10.2533 9.7199 10.8566C8.7199 11.46 7.47657 11.4933 6.44357 10.9433H6.43323C6.37618 10.9204 6.32546 10.8877 6.27501 10.8551C6.23733 10.8308 6.1998 10.8066 6.1599 10.7866C6.0569 10.7433 5.9399 10.7366 5.83357 10.7703C5.58657 10.8566 5.33657 10.9266 5.0799 10.9866C4.94657 10.99 4.90657 10.91 4.90657 10.78C4.96657 10.5166 5.04657 10.2563 5.14023 10.0033C5.17657 9.89329 5.1669 9.77663 5.11023 9.67296L5.04357 9.54329C4.79657 9.07329 4.6669 8.54996 4.6669 8.02029V7.99996C4.6669 7.11663 5.01657 6.26663 5.64323 5.64329C6.2699 5.01663 7.11657 4.66663 8.00023 4.66663ZM6.46323 8.42995C6.22656 8.42995 6.03656 8.23662 6.03656 8.00328C6.03656 7.76662 6.22656 7.57662 6.46323 7.57662C6.69656 7.57662 6.89023 7.76662 6.89023 8.00328C6.89023 8.23662 6.69656 8.42995 6.46323 8.42995ZM7.57324 8.00328C7.57324 8.23662 7.76357 8.42995 8.00024 8.42995C8.2369 8.42995 8.42657 8.23662 8.42657 8.00328C8.42657 7.76662 8.2369 7.57662 8.00024 7.57662C7.76357 7.57662 7.57324 7.76662 7.57324 8.00328ZM9.11022 8.00328C9.11022 8.23662 9.30322 8.42995 9.53656 8.42995C9.77322 8.42995 9.96322 8.23662 9.96322 8.00328C9.96322 7.76662 9.77322 7.57662 9.53656 7.57662C9.30322 7.57662 9.11022 7.76662 9.11022 8.00328Z" fill="white"/>
</svg>
