<svg width="17" height="148" viewBox="0 0 17 148" fill="none" xmlns="http://www.w3.org/2000/svg">
<g clip-path="url(#clip0)">
<path d="M4.30256 14.1293C6.34304 14.1431 7.71413 12.7397 7.70952 10.87C7.71413 9.08345 6.43999 7.79084 4.78267 7.79084C3.76705 7.79084 2.87145 8.2848 2.41903 9.0973H2.3544C2.35902 7.0799 3.08842 5.87038 4.3995 5.87038C5.212 5.87038 5.76136 6.34588 5.93679 7.09375H7.6218C7.41868 5.54261 6.18608 4.38849 4.3995 4.38849C2.1282 4.38849 0.692472 6.28125 0.692472 9.54048C0.692472 13.0075 2.48828 14.12 4.30256 14.1293ZM4.29332 12.7443C3.28232 12.7443 2.54368 11.9087 2.53906 10.9208C2.5483 9.92827 3.31463 9.0973 4.31641 9.0973C5.31818 9.0973 6.0522 9.89133 6.04759 10.907C6.0522 11.9411 5.2951 12.7443 4.29332 12.7443ZM12.7646 14.18C15.0451 14.1847 16.407 12.3842 16.407 9.28196C16.407 6.19815 15.0359 4.41619 12.7646 4.41619C10.4933 4.41619 9.12678 6.19354 9.12216 9.28196C9.12216 12.3796 10.484 14.18 12.7646 14.18ZM12.7646 12.7351C11.5874 12.7351 10.8487 11.5533 10.8533 9.28196C10.858 7.02912 11.592 5.84268 12.7646 5.84268C13.9418 5.84268 14.6758 7.02912 14.6804 9.28196C14.6804 11.5533 13.9464 12.7351 12.7646 12.7351Z" fill="#808191"/>
<path d="M0.669389 55.2457H5.17969V57H6.81392V55.2457H8.02344V53.8377H6.81392V47.5455H4.68111L0.669389 53.8839V55.2457ZM5.19815 53.8377H2.42365V53.7638L5.12429 49.4844H5.19815V53.8377ZM12.9931 57.18C15.2736 57.1847 16.6355 55.3842 16.6355 52.282C16.6355 49.1982 15.2644 47.4162 12.9931 47.4162C10.7218 47.4162 9.35529 49.1935 9.35067 52.282C9.35067 55.3796 10.7125 57.18 12.9931 57.18ZM12.9931 55.7351C11.8159 55.7351 11.0772 54.5533 11.0819 52.282C11.0865 50.0291 11.8205 48.8427 12.9931 48.8427C14.1703 48.8427 14.9043 50.0291 14.9089 52.282C14.9089 54.5533 14.1749 55.7351 12.9931 55.7351Z" fill="#808191"/>
<path d="M0.840199 101H7.32173V99.5689H3.20384V99.5043L4.83345 97.8469C6.67081 96.0835 7.17862 95.2248 7.17862 94.1584C7.17862 92.5749 5.89062 91.4162 3.98864 91.4162C2.11435 91.4162 0.784801 92.5795 0.784801 94.3754H2.41442C2.41442 93.4105 3.02379 92.8058 3.96555 92.8058C4.86577 92.8058 5.53516 93.3551 5.53516 94.2461C5.53516 95.0355 5.05504 95.5987 4.12251 96.5451L0.840199 99.7628V101ZM12.4091 101.18C14.6896 101.185 16.0515 99.3842 16.0515 96.282C16.0515 93.1982 14.6804 91.4162 12.4091 91.4162C10.1378 91.4162 8.77131 93.1935 8.76669 96.282C8.76669 99.3796 10.1286 101.18 12.4091 101.18ZM12.4091 99.7351C11.2319 99.7351 10.4933 98.5533 10.4979 96.282C10.5025 94.0291 11.2365 92.8427 12.4091 92.8427C13.5863 92.8427 14.3203 94.0291 14.3249 96.282C14.3249 98.5533 13.5909 99.7351 12.4091 99.7351Z" fill="#808191"/>
<path d="M4.33487 144.18C6.61541 144.185 7.97727 142.384 7.97727 139.282C7.97727 136.198 6.60618 134.416 4.33487 134.416C2.06357 134.416 0.697088 136.194 0.692472 139.282C0.692472 142.38 2.05433 144.18 4.33487 144.18ZM4.33487 142.735C3.15767 142.735 2.41903 141.553 2.42365 139.282C2.42827 137.029 3.16229 135.843 4.33487 135.843C5.51207 135.843 6.24609 137.029 6.25071 139.282C6.25071 141.553 5.51669 142.735 4.33487 142.735Z" fill="#808191"/>
</g>
<defs>
<clipPath id="clip0">
<rect width="17" height="148" fill="white"/>
</clipPath>
</defs>
</svg>
