<svg width="16" height="16" viewBox="0 0 16 16" fill="none" xmlns="http://www.w3.org/2000/svg">
<rect width="16" height="16" rx="6" fill="#3F8CFF"/>
<path fill-rule="evenodd" clip-rule="evenodd" d="M10.7143 7.50413L10.971 9.50079C11.1613 10.8041 10.4043 11.3341 9.38762 11.3341H6.62429C5.60462 11.3341 4.82429 10.9675 5.03429 9.50079L5.29429 7.50413C5.33429 7.20746 5.47762 6.93079 5.70096 6.72746C5.87129 6.57779 6.09096 6.49746 6.31762 6.49746V6.42079C6.29096 5.80413 6.60796 5.22079 7.14096 4.90413C7.67429 4.58746 8.34096 4.58746 8.87429 4.90413C9.40762 5.22079 9.72096 5.80413 9.69762 6.42079V6.49746C10.1176 6.49746 10.561 6.79079 10.7143 7.50413ZM6.82429 6.4208C6.82429 5.77413 7.35096 5.24746 8.00096 5.24746C8.65429 5.24746 9.18096 5.77413 9.18096 6.4208V6.49446H6.82429V6.4208ZM6.73428 7.86413C6.73428 8.02413 6.86762 8.15746 7.03095 8.15746C7.19428 8.15746 7.32428 8.02413 7.32428 7.86413C7.32428 7.7008 7.19428 7.5708 7.03095 7.5708C6.86762 7.5708 6.73428 7.7008 6.73428 7.86413ZM8.96429 8.15746C9.04096 8.15746 9.11763 8.12746 9.17096 8.0708C9.22763 8.01746 9.25763 7.9408 9.25763 7.86413C9.25763 7.7008 9.12429 7.5708 8.96429 7.5708C8.80129 7.5708 8.66763 7.7008 8.66763 7.86413C8.66763 8.02413 8.80129 8.15746 8.96429 8.15746Z" fill="white"/>
</svg>
